<svg xmlns="http://www.w3.org/2000/svg" viewBox="0 0 626.33 170.17"><defs><style>.cls-3{fill:#444}.cls-5{fill:#6c6b6b}.cls-6{fill:#2e2f2f}.cls-9{fill:#be1e2d}</style></defs><g style="isolation:isolate"><g id="Layer_1" data-name="Layer 1"><g id="Carrier"><g style="mix-blend-mode:multiply" opacity=".5"><path d="M129.27 199.46a2 2 0 01-1.93-1.47l-8.94-32.59-87.54-3.4a2 2 0 01-1.86-1.71l-3.83-22.52L17 89.79a2 2 0 01.42-1.59 2 2 0 011.47-.74l92-4L172 49.71a2 2 0 011-.25h164.09l19.5-7.05a2 2 0 01.68-.12h70.67a2 2 0 011.95 1.55l9.67 42.37 190.82 10.42a2 2 0 011.89 2v52.66a2 2 0 01-1.89 2l-183.1 10.31-52.21 35.52a2.09 2.09 0 01-1.13.35z" transform="translate(-15.44 -30.79)"/><path d="M393.94 201H129.27a3.5 3.5 0 01-3.37-2.58l-8.66-31.53-86.44-3.4a3.52 3.52 0 01-3.31-2.91L15.49 90a3.51 3.51 0 013.3-4l91.68-4 60.78-33.6a3.54 3.54 0 011.69-.43h163.89l19.25-7a3.67 3.67 0 011.19-.2h70.67a3.48 3.48 0 013.41 2.72l9.42 41.26 189.69 10.38a3.5 3.5 0 013.31 3.5v52.66a3.5 3.5 0 01-3.3 3.49l-182.69 10.29-51.87 35.28a3.45 3.45 0 01-1.97.65zm-221-150a.5.5 0 00-.24.06L111.3 85h-.3l-92 4a.49.49 0 00-.37.18.48.48 0 00-.1.4l12 70.5a.49.49 0 00.47.41l88.64 3.49 9.23 33.65a.51.51 0 00.48.37h264.59a.47.47 0 00.28-.09l52.56-35.75 183.52-10.38a.49.49 0 00.47-.49V98.63a.5.5 0 00-.47-.5L438.35 87.65l-9.92-43.48a.5.5 0 00-.49-.38h-70.67a.51.51 0 00-.17 0L337.35 51z" transform="translate(-15.44 -30.79)"/></g><path class="cls-3" d="M137.27 189.46a2 2 0 01-1.93-1.47l-8.94-32.59-87.54-3.4a2 2 0 01-1.86-1.71l-3.83-22.52L25 79.79a2 2 0 01.42-1.59 2 2 0 011.47-.74l92-4L180 39.71a2 2 0 011-.25h164.09l19.5-7.05a2 2 0 01.68-.12h70.67a2 2 0 011.95 1.55l9.67 42.37 190.82 10.42a2 2 0 011.89 2v52.66a2 2 0 01-1.89 2l-183.1 10.31-52.21 35.52a2.09 2.09 0 01-1.13.35z" transform="translate(-15.44 -30.79)"/><path d="M401.94 191H137.27a3.5 3.5 0 01-3.37-2.58l-8.66-31.53-86.44-3.4a3.52 3.52 0 01-3.31-2.91L23.49 80a3.51 3.51 0 013.3-4l91.68-4 60.78-33.6a3.54 3.54 0 011.69-.43h163.89l19.25-7a3.67 3.67 0 011.19-.2h70.67a3.48 3.48 0 013.41 2.72l9.42 41.26 189.69 10.38a3.5 3.5 0 013.31 3.5v52.66a3.5 3.5 0 01-3.3 3.49l-182.69 10.29-51.87 35.28a3.45 3.45 0 01-1.97.65zm-221-150a.5.5 0 00-.24.06L119.3 75h-.3l-92 4a.49.49 0 00-.37.18.48.48 0 00-.1.4l12 70.5a.49.49 0 00.47.41l88.64 3.49 9.23 33.65a.51.51 0 00.48.37h264.59a.47.47 0 00.28-.09l52.56-35.75 183.52-10.38a.49.49 0 00.47-.49V88.63a.5.5 0 00-.47-.5L446.35 77.65l-9.92-43.48a.5.5 0 00-.49-.38h-70.67a.51.51 0 00-.17 0L345.35 41z" transform="translate(-15.44 -30.79)" fill="#272e30"/><path class="cls-5" d="M252.5 128.26h87.25v28.41H252.5z"/><path class="cls-6" d="M276 128.26l20.83-7.71h42.92v7.71H276z"/><path fill="#738181" d="M252.5 133.29h66.87v23.38H252.5z"/><path class="cls-3" d="M279.58 138.04h32.58v13.88h-32.58z"/><path class="cls-6" d="M283.87 141.04h24v7.88h-24z"/><path class="cls-5" d="M349.5 128.26h36.75v28.41H349.5zm81-80.92L82.56 108.75l-5.41.95-53.65 9.47-.88-5.19 53.54-9.62 5.41-.97 347.47-62.43 1.46 6.38z"/><path class="cls-3" d="M82.56 108.75l-5.41.95-.99-5.34 5.41-.97.99 5.36zm41.71-7.37l5.42-.95-1.02-5.51-5.42.98 1.02 5.48zM222.86 78l-5.41.97 1.08 5.78 5.41-.96-1.08-5.79zm-47.09 8.46l-5.42.98 1.05 5.63 5.42-.96-1.05-5.65zm141.29-25.38l-5.41.97 1.13 6.06 5.41-.95-1.13-6.08zm94.2-16.93l-5.41.97 1.18 6.36 5.42-.96-1.19-6.37zm-141.3 25.39l-5.41.97 1.1 5.92 5.42-.96-1.11-5.93zm94.2-16.93l-5.41.98 1.15 6.21 5.42-.96-1.16-6.23z"/><path class="cls-5" d="M17.07 81.37L421.69 8.74 420.5 3.5 16.17 76.1l.9 5.27z"/><path class="cls-3" d="M168.5 48.75l-5.12.92 1.09 5.24 5.02-.9-.99-5.26zM69.38 71.98l5.04-.9-.99-5.26-5.15.92 1.1 5.24zm52.76-14.91l-5.13.92 1.09 5.25 5.02-.9-.98-5.27zm93.65-16.81l-5.11.91 1.1 5.25 5-.9-.99-5.26zm141.52-25.41l-5.09.91 1.1 5.25 4.97-.89-.98-5.27zm46.89-8.42l-5.11.92 1.1 5.25 5-.9-.99-5.27zm-94.14 16.9l-5.09.92 1.09 5.25 4.99-.9-.99-5.27zm-46.32 8.32l-5.11.91 1.1 5.25 5-.89-.99-5.27z"/><path fill="#beb647" d="M425.82 26.82L20.34 100.6l-.67-3.95 405.26-73.74.89 3.91z"/><path class="cls-5" d="M638.27 99.79v3h-199a1.5 1.5 0 010-3zm0 23.67v3h-199a1.5 1.5 0 010-3z" transform="translate(-15.44 -30.79)"/><path class="cls-9" d="M177.82 156.67h-2v-29.45h-34.65v29.45h-2v-31.45h38.65v31.45z"/><path class="cls-9" d="M231 156.67h-2v-14.63h-52.18v-2H231v16.63z"/></g></g></g></svg>