<svg xmlns="http://www.w3.org/2000/svg" viewBox="0 0 237.63 173.93"><g data-name="Fighter Aircraft"><g style="mix-blend-mode:multiply" opacity=".5"><path d="M62.28 172.43c-3 0-8.51-2-11-15.32l-8.53-29.22-1.78-.42-13.86 15.77a3 3 0 01-2.26 1l-11.22-.2c-.64 0-5.75-.44-8.78-8 0-.1-.07-.2-.1-.3l-2.67-9.46a4.26 4.26 0 01-.57-2c-.14-2.44 1.44-5.2 5-8.69.68-.74 8.41-9.28 12.07-15.3a3 3 0 012.56-1.45h6.9a3.2 3.2 0 01-.15-1.11l.18-3.35a3 3 0 01.76-1.84l3-3.1-3-3.4a3 3 0 01-.73-1.78l-.27-4.44-7.5-.33a3 3 0 01-2.41-1.35A194.28 194.28 0 002.65 58.58a3 3 0 01-.71-2.39 87.58 87.58 0 013.89-15.74v-.09c.87-2.22 3.53-6 8-6.18l11.31.07a3 3 0 012.23 1l14.29 16.24 1.1-.21 11.43-37.23a2.63 2.63 0 01.17-.42c1.27-2.65 4.8-7.13 9.93-7.13a9.2 9.2 0 011 .06l13.17.58a3 3 0 012.12 1L127.83 62l31.87 3.43a3 3 0 012 1.15l8.39 10.87 52.4 6.55a3 3 0 01.59.14c3.79 1.28 8.24 3.57 8 7.2s-4.53 4.8-8.63 5.49h-.18l-50.79 5.59-9.89 11a3 3 0 01-1.94 1l-31.58 3.07-48.37 53.16a3 3 0 01-2.07 1l-14.23.71a6.52 6.52 0 01-1.12.07z"/><path d="M62.28 172.43c-3 0-8.51-2-11-15.32l-8.53-29.22-1.78-.42-13.86 15.77a3 3 0 01-2.26 1l-11.22-.2c-.64 0-5.75-.44-8.78-8 0-.1-.07-.2-.1-.3l-2.67-9.46a4.26 4.26 0 01-.57-2c-.14-2.44 1.44-5.2 5-8.69.68-.74 8.41-9.28 12.07-15.3a3 3 0 012.56-1.45h6.9a3.2 3.2 0 01-.15-1.11l.18-3.35a3 3 0 01.76-1.84l3-3.1-3-3.4a3 3 0 01-.73-1.78l-.27-4.44-7.5-.33a3 3 0 01-2.41-1.35A194.28 194.28 0 002.65 58.58a3 3 0 01-.71-2.39 87.58 87.58 0 013.89-15.74v-.09c.87-2.22 3.53-6 8-6.18l11.31.07a3 3 0 012.23 1l14.29 16.24 1.1-.21 11.43-37.23a2.63 2.63 0 01.17-.42c1.27-2.65 4.8-7.13 9.93-7.13a9.2 9.2 0 011 .06l13.17.58a3 3 0 012.12 1L127.83 62l31.87 3.43a3 3 0 012 1.15l8.39 10.87 52.4 6.55a3 3 0 01.59.14c3.79 1.28 8.24 3.57 8 7.2s-4.53 4.8-8.63 5.49h-.18l-50.79 5.59-9.89 11a3 3 0 01-1.94 1l-31.58 3.07-48.37 53.16a3 3 0 01-2.07 1l-14.23.71a6.52 6.52 0 01-1.12.07z" stroke="#000" fill="none" stroke-miterlimit="10" stroke-width="3"/></g><path d="M67.28 167.43c-3 0-8.51-2-11-15.32l-8.53-29.22-1.78-.42-13.86 15.77a3 3 0 01-2.26 1l-11.22-.2c-.64 0-5.75-.44-8.78-8 0-.1-.07-.2-.1-.3l-2.67-9.46a4.26 4.26 0 01-.57-2c-.14-2.44 1.44-5.2 5-8.69.68-.74 8.41-9.28 12.07-15.3a3 3 0 012.56-1.45h6.9a3.2 3.2 0 01-.15-1.11l.18-3.35a3 3 0 01.76-1.84l3-3.1-3-3.4a3 3 0 01-.73-1.78l-.27-4.44-7.5-.33a3 3 0 01-2.41-1.35A194.28 194.28 0 007.65 53.58a3 3 0 01-.71-2.39 87.58 87.58 0 013.89-15.74v-.09c.87-2.22 3.53-6 8-6.18l11.31.07a3 3 0 012.23 1l14.29 16.24 1.1-.21L59.19 9.05a2.63 2.63 0 01.17-.42c1.27-2.65 4.8-7.13 9.93-7.13a9.2 9.2 0 011 .06l13.17.58a3 3 0 012.12 1L132.83 57l31.87 3.43a3 3 0 012 1.15l8.39 10.87 52.4 6.55a3 3 0 01.59.14c3.79 1.28 8.24 3.57 8 7.2s-4.53 4.8-8.63 5.49h-.18l-50.79 5.59-9.89 11a3 3 0 01-1.94 1l-31.58 3.07-48.37 53.16a3 3 0 01-2.07 1l-14.23.71a6.52 6.52 0 01-1.12.07z" fill="#a7a7a7"/><path d="M67.28 167.43c-3 0-8.51-2-11-15.32l-8.53-29.22-1.78-.42-13.86 15.77a3 3 0 01-2.26 1l-11.22-.2c-.64 0-5.75-.44-8.78-8 0-.1-.07-.2-.1-.3l-2.67-9.46a4.26 4.26 0 01-.57-2c-.14-2.44 1.44-5.2 5-8.69.68-.74 8.41-9.28 12.07-15.3a3 3 0 012.56-1.45h6.9a3.2 3.2 0 01-.15-1.11l.18-3.35a3 3 0 01.76-1.84l3-3.1-3-3.4a3 3 0 01-.73-1.78l-.27-4.44-7.5-.33a3 3 0 01-2.41-1.35A194.28 194.28 0 007.65 53.58a3 3 0 01-.71-2.39 87.58 87.58 0 013.89-15.74v-.09c.87-2.22 3.53-6 8-6.18l11.31.07a3 3 0 012.23 1l14.29 16.24 1.1-.21L59.19 9.05a2.63 2.63 0 01.17-.42c1.27-2.65 4.8-7.13 9.93-7.13a9.2 9.2 0 011 .06l13.17.58a3 3 0 012.12 1L132.83 57l31.87 3.43a3 3 0 012 1.15l8.39 10.87 52.4 6.55a3 3 0 01.59.14c3.79 1.28 8.24 3.57 8 7.2s-4.53 4.8-8.63 5.49h-.18l-50.79 5.59-9.89 11a3 3 0 01-1.94 1l-31.58 3.07-48.37 53.16a3 3 0 01-2.07 1l-14.23.71a6.52 6.52 0 01-1.12.07z" stroke="#7b7b7c" fill="none" stroke-miterlimit="10" stroke-width="3"/></g></svg>