<svg xmlns="http://www.w3.org/2000/svg" viewBox="0 0 237.63 173.93"><defs><style>.cls-1{isolation:isolate;}.cls-2{opacity:0.5;mix-blend-mode:multiply;}.cls-3,.cls-5{fill:none;stroke-miterlimit:10;stroke-width:3px;}.cls-3{stroke:#000;}.cls-4{fill:#a7a7a7;}.cls-5{stroke:#7b7b7c;}</style></defs><g class="cls-1"><g id="elements"><g id="Fighter_Aircraft" data-name="Fighter Aircraft"><g class="cls-2"><path d="M64.45,180.29c-3,0-8.51-2-11-15.32l-8.53-29.22-1.78-.42L29.28,151.1a3,3,0,0,1-2.26,1L15.8,151.9c-.64,0-5.75-.44-8.78-8,0-.1-.07-.2-.1-.3l-2.67-9.46a4.26,4.26,0,0,1-.57-2c-.14-2.44,1.44-5.2,5-8.69.68-.74,8.41-9.28,12.07-15.3a3,3,0,0,1,2.56-1.45l6.9,0a3.2,3.2,0,0,1-.15-1.11l.18-3.35A3,3,0,0,1,31,100.4L34,97.3l-3-3.4a3,3,0,0,1-.73-1.78L30,87.68l-7.5-.33A3,3,0,0,1,20.09,86,194.28,194.28,0,0,0,4.82,66.44a3,3,0,0,1-.71-2.39A87.58,87.58,0,0,1,8,48.31l0-.09c.87-2.22,3.53-6,8-6.18l11.31.07a3,3,0,0,1,2.23,1L43.83,59.35l1.1-.21L56.36,21.91a2.63,2.63,0,0,1,.17-.42c1.27-2.65,4.8-7.13,9.93-7.13a9.2,9.2,0,0,1,1,.06L80.63,15a3,3,0,0,1,2.12,1L130,69.86l31.87,3.43a3,3,0,0,1,2,1.15l8.39,10.87,52.4,6.55a3,3,0,0,1,.59.14c3.79,1.28,8.24,3.57,8,7.2s-4.53,4.8-8.63,5.49l-.18,0-50.79,5.59-9.89,11a3,3,0,0,1-1.94,1l-31.58,3.07L81.87,178.51a3,3,0,0,1-2.07,1l-14.23.71A6.52,6.52,0,0,1,64.45,180.29Z" transform="translate(-2.17 -7.86)"/><path class="cls-3" d="M64.45,180.29c-3,0-8.51-2-11-15.32l-8.53-29.22-1.78-.42L29.28,151.1a3,3,0,0,1-2.26,1L15.8,151.9c-.64,0-5.75-.44-8.78-8,0-.1-.07-.2-.1-.3l-2.67-9.46a4.26,4.26,0,0,1-.57-2c-.14-2.44,1.44-5.2,5-8.69.68-.74,8.41-9.28,12.07-15.3a3,3,0,0,1,2.56-1.45l6.9,0a3.2,3.2,0,0,1-.15-1.11l.18-3.35A3,3,0,0,1,31,100.4L34,97.3l-3-3.4a3,3,0,0,1-.73-1.78L30,87.68l-7.5-.33A3,3,0,0,1,20.09,86,194.28,194.28,0,0,0,4.82,66.44a3,3,0,0,1-.71-2.39A87.58,87.58,0,0,1,8,48.31l0-.09c.87-2.22,3.53-6,8-6.18l11.31.07a3,3,0,0,1,2.23,1L43.83,59.35l1.1-.21L56.36,21.91a2.63,2.63,0,0,1,.17-.42c1.27-2.65,4.8-7.13,9.93-7.13a9.2,9.2,0,0,1,1,.06L80.63,15a3,3,0,0,1,2.12,1L130,69.86l31.87,3.43a3,3,0,0,1,2,1.15l8.39,10.87,52.4,6.55a3,3,0,0,1,.59.14c3.79,1.28,8.24,3.57,8,7.2s-4.53,4.8-8.63,5.49l-.18,0-50.79,5.59-9.89,11a3,3,0,0,1-1.94,1l-31.58,3.07L81.87,178.51a3,3,0,0,1-2.07,1l-14.23.71A6.52,6.52,0,0,1,64.45,180.29Z" transform="translate(-2.17 -7.86)"/></g><path class="cls-4" d="M69.45,175.29c-3,0-8.51-2-11-15.32l-8.53-29.22-1.78-.42L34.28,146.1a3,3,0,0,1-2.26,1L20.8,146.9c-.64,0-5.75-.44-8.78-8,0-.1-.07-.2-.1-.3l-2.67-9.46a4.26,4.26,0,0,1-.57-2c-.14-2.44,1.44-5.2,5-8.69.68-.74,8.41-9.28,12.07-15.3a3,3,0,0,1,2.56-1.45l6.9,0a3.2,3.2,0,0,1-.15-1.11l.18-3.35A3,3,0,0,1,36,95.4l3-3.1-3-3.4a3,3,0,0,1-.73-1.78L35,82.68l-7.5-.33A3,3,0,0,1,25.09,81,194.28,194.28,0,0,0,9.82,61.44a3,3,0,0,1-.71-2.39A87.58,87.58,0,0,1,13,43.31l0-.09c.87-2.22,3.53-6,8-6.18l11.31.07a3,3,0,0,1,2.23,1L48.83,54.35l1.1-.21L61.36,16.91a2.63,2.63,0,0,1,.17-.42c1.27-2.65,4.8-7.13,9.93-7.13a9.2,9.2,0,0,1,1,.06L85.63,10a3,3,0,0,1,2.12,1L135,64.86l31.87,3.43a3,3,0,0,1,2,1.15l8.39,10.87,52.4,6.55a3,3,0,0,1,.59.14c3.79,1.28,8.24,3.57,8,7.2s-4.53,4.8-8.63,5.49l-.18,0-50.79,5.59-9.89,11a3,3,0,0,1-1.94,1l-31.58,3.07L86.87,173.51a3,3,0,0,1-2.07,1l-14.23.71A6.52,6.52,0,0,1,69.45,175.29Z" transform="translate(-2.17 -7.86)"/><path class="cls-5" d="M69.45,175.29c-3,0-8.51-2-11-15.32l-8.53-29.22-1.78-.42L34.28,146.1a3,3,0,0,1-2.26,1L20.8,146.9c-.64,0-5.75-.44-8.78-8,0-.1-.07-.2-.1-.3l-2.67-9.46a4.26,4.26,0,0,1-.57-2c-.14-2.44,1.44-5.2,5-8.69.68-.74,8.41-9.28,12.07-15.3a3,3,0,0,1,2.56-1.45l6.9,0a3.2,3.2,0,0,1-.15-1.11l.18-3.35A3,3,0,0,1,36,95.4l3-3.1-3-3.4a3,3,0,0,1-.73-1.78L35,82.68l-7.5-.33A3,3,0,0,1,25.09,81,194.28,194.28,0,0,0,9.82,61.44a3,3,0,0,1-.71-2.39A87.58,87.58,0,0,1,13,43.31l0-.09c.87-2.22,3.53-6,8-6.18l11.31.07a3,3,0,0,1,2.23,1L48.83,54.35l1.1-.21L61.36,16.91a2.63,2.63,0,0,1,.17-.42c1.27-2.65,4.8-7.13,9.93-7.13a9.2,9.2,0,0,1,1,.06L85.63,10a3,3,0,0,1,2.12,1L135,64.86l31.87,3.43a3,3,0,0,1,2,1.15l8.39,10.87,52.4,6.55a3,3,0,0,1,.59.14c3.79,1.28,8.24,3.57,8,7.2s-4.53,4.8-8.63,5.49l-.18,0-50.79,5.59-9.89,11a3,3,0,0,1-1.94,1l-31.58,3.07L86.87,173.51a3,3,0,0,1-2.07,1l-14.23.71A6.52,6.52,0,0,1,69.45,175.29Z" transform="translate(-2.17 -7.86)"/></g></g></g></svg>