<svg xmlns="http://www.w3.org/2000/svg" viewBox="0 0 626.33 170.17"><defs><style>.cls-1{isolation:isolate;}.cls-2{opacity:0.5;mix-blend-mode:multiply;}.cls-3{fill:#444;}.cls-4{fill:#272e30;}.cls-5{fill:#6c6b6b;}.cls-6{fill:#2e2f2f;}.cls-7{fill:#738181;}.cls-8{fill:#beb647;}.cls-9{fill:#be1e2d;}</style></defs><g class="cls-1"><g id="Layer_1" data-name="Layer 1"><g id="Carrier"><g class="cls-2"><path d="M129.27,199.46a2,2,0,0,1-1.93-1.47L118.4,165.4,30.86,162A2,2,0,0,1,29,160.29l-3.83-22.52L17,89.79a2,2,0,0,1,.42-1.59,2,2,0,0,1,1.47-.74l92-4L172,49.71a2,2,0,0,1,1-.25H337.09l19.5-7.05a2,2,0,0,1,.68-.12h70.67a2,2,0,0,1,1.95,1.55l9.67,42.37L630.38,96.63a2,2,0,0,1,1.89,2v52.66a2,2,0,0,1-1.89,2l-183.1,10.31-52.21,35.52a2.09,2.09,0,0,1-1.13.35Z" transform="translate(-15.44 -30.79)"/><path d="M393.94,201H129.27a3.5,3.5,0,0,1-3.37-2.58l-8.66-31.53-86.44-3.4a3.52,3.52,0,0,1-3.31-2.91L15.49,90A3.51,3.51,0,0,1,18.79,86l91.68-4,60.78-33.6a3.54,3.54,0,0,1,1.69-.43H336.83l19.25-7a3.67,3.67,0,0,1,1.19-.2h70.67a3.48,3.48,0,0,1,3.41,2.72l9.42,41.26L630.46,95.13a3.5,3.5,0,0,1,3.31,3.5v52.66a3.5,3.5,0,0,1-3.3,3.49L447.78,165.07l-51.87,35.28A3.45,3.45,0,0,1,393.94,201Zm-221-150a.5.5,0,0,0-.24.06L111.3,85,111,85l-92,4a.49.49,0,0,0-.37.18.48.48,0,0,0-.1.4l12,70.5a.49.49,0,0,0,.47.41l88.64,3.49,9.23,33.65a.51.51,0,0,0,.48.37H393.94a.47.47,0,0,0,.28-.09l52.56-35.75L630.3,151.78a.49.49,0,0,0,.47-.49V98.63a.5.5,0,0,0-.47-.5L438.35,87.65l-9.92-43.48a.5.5,0,0,0-.49-.38H357.27a.51.51,0,0,0-.17,0L337.35,51Z" transform="translate(-15.44 -30.79)"/></g><path class="cls-3" d="M137.27,189.46a2,2,0,0,1-1.93-1.47L126.4,155.4,38.86,152A2,2,0,0,1,37,150.29l-3.83-22.52L25,79.79a2,2,0,0,1,.42-1.59,2,2,0,0,1,1.47-.74l92-4L180,39.71a2,2,0,0,1,1-.25H345.09l19.5-7.05a2,2,0,0,1,.68-.12h70.67a2,2,0,0,1,1.95,1.55l9.67,42.37L638.38,86.63a2,2,0,0,1,1.89,2v52.66a2,2,0,0,1-1.89,2l-183.1,10.31-52.21,35.52a2.09,2.09,0,0,1-1.13.35Z" transform="translate(-15.44 -30.79)"/><path class="cls-4" d="M401.94,191H137.27a3.5,3.5,0,0,1-3.37-2.58l-8.66-31.53-86.44-3.4a3.52,3.52,0,0,1-3.31-2.91L23.49,80A3.51,3.51,0,0,1,26.79,76l91.68-4,60.78-33.6a3.54,3.54,0,0,1,1.69-.43H344.83l19.25-7a3.67,3.67,0,0,1,1.19-.2h70.67a3.48,3.48,0,0,1,3.41,2.72l9.42,41.26L638.46,85.13a3.5,3.5,0,0,1,3.31,3.5v52.66a3.5,3.5,0,0,1-3.3,3.49L455.78,155.07l-51.87,35.28A3.45,3.45,0,0,1,401.94,191Zm-221-150a.5.5,0,0,0-.24.06L119.3,75,119,75l-92,4a.49.49,0,0,0-.37.18.48.48,0,0,0-.1.4l12,70.5a.49.49,0,0,0,.47.41l88.64,3.49,9.23,33.65a.51.51,0,0,0,.48.37H401.94a.47.47,0,0,0,.28-.09l52.56-35.75L638.3,141.78a.49.49,0,0,0,.47-.49V88.63a.5.5,0,0,0-.47-.5L446.35,77.65l-9.92-43.48a.5.5,0,0,0-.49-.38H365.27a.51.51,0,0,0-.17,0L345.35,41Z" transform="translate(-15.44 -30.79)"/><rect class="cls-5" x="252.5" y="128.26" width="87.25" height="28.41"/><polygon class="cls-6" points="276 128.26 296.83 120.55 339.75 120.55 339.75 128.26 276 128.26"/><rect class="cls-7" x="252.5" y="133.29" width="66.87" height="23.38"/><rect class="cls-3" x="279.58" y="138.04" width="32.58" height="13.88"/><rect class="cls-6" x="283.87" y="141.04" width="24" height="7.88"/><rect class="cls-5" x="349.5" y="128.26" width="36.75" height="28.41"/><polygon class="cls-5" points="430.5 47.34 82.56 108.75 77.15 109.7 23.5 119.17 22.62 113.98 76.16 104.36 81.57 103.39 429.04 40.96 430.5 47.34"/><polygon class="cls-3" points="82.56 108.75 77.15 109.7 76.16 104.36 81.57 103.39 82.56 108.75"/><polygon class="cls-3" points="124.27 101.38 129.69 100.43 128.67 94.92 123.25 95.9 124.27 101.38"/><polygon class="cls-3" points="222.86 78 217.45 78.97 218.53 84.75 223.94 83.79 222.86 78"/><polygon class="cls-3" points="175.77 86.46 170.35 87.44 171.4 93.07 176.82 92.11 175.77 86.46"/><polygon class="cls-3" points="317.06 61.08 311.65 62.05 312.78 68.11 318.19 67.16 317.06 61.08"/><polygon class="cls-3" points="411.26 44.15 405.85 45.12 407.03 51.48 412.45 50.52 411.26 44.15"/><polygon class="cls-3" points="269.96 69.54 264.55 70.51 265.65 76.43 271.07 75.47 269.96 69.54"/><polygon class="cls-3" points="364.16 52.61 358.75 53.59 359.9 59.8 365.32 58.84 364.16 52.61"/><polygon class="cls-5" points="17.07 81.37 421.69 8.74 420.5 3.5 16.17 76.1 17.07 81.37"/><polygon class="cls-3" points="168.5 48.75 163.38 49.67 164.47 54.91 169.49 54.01 168.5 48.75"/><polygon class="cls-3" points="69.38 71.98 74.42 71.08 73.43 65.82 68.28 66.74 69.38 71.98"/><polygon class="cls-3" points="122.14 57.07 117.01 57.99 118.1 63.24 123.12 62.34 122.14 57.07"/><polygon class="cls-3" points="215.79 40.26 210.68 41.17 211.78 46.42 216.78 45.52 215.79 40.26"/><polygon class="cls-3" points="357.31 14.85 352.22 15.76 353.32 21.01 358.29 20.12 357.31 14.85"/><polygon class="cls-3" points="404.2 6.43 399.09 7.35 400.19 12.6 405.19 11.7 404.2 6.43"/><polygon class="cls-3" points="310.06 23.33 304.97 24.25 306.06 29.5 311.05 28.6 310.06 23.33"/><polygon class="cls-3" points="263.74 31.65 258.63 32.56 259.73 37.81 264.73 36.92 263.74 31.65"/><polygon class="cls-8" points="425.82 26.82 20.34 100.6 19.67 96.65 424.93 22.91 425.82 26.82"/><path class="cls-5" d="M638.27,99.79v3h-199a1.5,1.5,0,0,1,0-3Z" transform="translate(-15.44 -30.79)"/><path class="cls-5" d="M638.27,123.46v3h-199a1.5,1.5,0,0,1,0-3Z" transform="translate(-15.44 -30.79)"/><polygon class="cls-9" points="177.82 156.67 175.82 156.67 175.82 127.22 141.17 127.22 141.17 156.67 139.17 156.67 139.17 125.22 177.82 125.22 177.82 156.67"/><polygon class="cls-9" points="231 156.67 229 156.67 229 142.04 176.82 142.04 176.82 140.04 231 140.04 231 156.67"/></g></g></g></svg>